<svg width="106" height="33" viewBox="0 0 106 33" fill="none" xmlns="http://www.w3.org/2000/svg">
<path d="M15.9258 7.9751C14.7718 7.9751 13.6287 8.20242 12.5625 8.64404L12.3643 8.729C11.3764 9.16698 10.4769 9.78337 9.71191 10.5483L9.56055 10.7036C8.81563 11.4862 8.22059 12.4005 7.80664 13.3999L7.72656 13.6001C7.33772 14.6083 7.13773 15.6804 7.1377 16.7622C7.1377 17.9162 7.36505 19.0594 7.80664 20.1255L7.89258 20.3237C8.33053 21.3116 8.94699 22.2111 9.71191 22.9761L9.86719 23.1274C10.6497 23.8723 11.5632 24.4674 12.5625 24.8813L12.7637 24.9614C13.7719 25.3502 14.844 25.5503 15.9258 25.5503V32.688C13.8998 32.688 11.8928 32.3011 10.0127 31.5493L9.83105 31.4761C7.95953 30.7008 6.25381 29.5754 4.80469 28.1616L4.66504 28.0229C3.23258 26.5904 2.08684 24.8984 1.28906 23.0376L1.21289 22.8569C0.412604 20.9248 9.44247e-06 18.8535 0 16.7622C3.1161e-05 14.7362 0.386907 12.7291 1.13867 10.8491L1.21289 10.6675C1.98818 8.79591 3.11348 7.09025 4.52734 5.64111L4.66504 5.50146C6.09765 4.06886 7.79036 2.9233 9.65137 2.12549L9.83105 2.04932C11.7632 1.24899 13.8345 0.837406 15.9258 0.837402V7.9751ZM33.1191 0.687988C41.9554 0.688181 49.1182 7.85155 49.1182 16.688C49.1182 25.5244 41.9554 32.6878 33.1191 32.688C24.2827 32.688 17.1191 25.5245 17.1191 16.688C17.1191 7.85143 24.2827 0.687988 33.1191 0.687988ZM58.9648 5.67139C62.431 2.65676 66.9198 0.837402 71.8242 0.837402H76.3105V32.688H69.2959V8.27295C63.4044 9.47536 58.9648 14.7981 58.9648 21.1831V32.688H51.9502V0.687988H58.9648V5.67139ZM86.3252 32.688H79.3105V0.687988H86.3252V32.688ZM105.324 7.85889C104.165 7.85889 103.016 8.08707 101.945 8.53076L101.746 8.6167C100.754 9.05673 99.8496 9.67624 99.0811 10.4448L98.9297 10.6001C98.1811 11.3864 97.5829 12.3049 97.167 13.3091L97.0869 13.5112C96.6963 14.5242 96.4951 15.6011 96.4951 16.688C96.4951 17.8474 96.7233 18.9958 97.167 20.0669L97.2529 20.2661C97.6929 21.2584 98.3127 22.1617 99.0811 22.9302L99.2373 23.0825C100.024 23.8309 100.941 24.4283 101.945 24.8442L102.147 24.9253C103.16 25.3159 104.237 25.5171 105.324 25.5171V32.688C103.289 32.688 101.273 32.2997 99.3838 31.5444L99.2012 31.4702C97.3208 30.6913 95.6073 29.5606 94.1514 28.1401L94.0107 28.0015C92.5716 26.5623 91.4207 24.8622 90.6191 22.9927L90.542 22.811C89.738 20.8699 89.3242 18.7891 89.3242 16.688C89.3242 14.6526 89.7126 12.6363 90.4678 10.7476L90.542 10.5649C91.3209 8.68442 92.4515 6.9702 93.8721 5.51416L94.0107 5.37451C95.4501 3.93518 97.1508 2.78349 99.0205 1.98193L99.2012 1.90576C101.142 1.10169 103.223 0.687988 105.324 0.687988V7.85889ZM33.1191 7.70264C28.1565 7.70264 24.1328 11.7253 24.1328 16.688C24.1328 21.6506 28.1565 25.6733 33.1191 25.6733C38.0816 25.6731 42.1045 21.6505 42.1045 16.688C42.1045 11.7255 38.0816 7.70283 33.1191 7.70264Z" fill="url(#paint0_linear_724_6589)"/>
<defs>
<linearGradient id="paint0_linear_724_6589" x1="0" y1="16.688" x2="105.324" y2="16.688" gradientUnits="userSpaceOnUse">
<stop offset="0.389423" stop-color="#FF363C"/>
<stop offset="1" stop-color="#FF8345"/>
</linearGradient>
</defs>
</svg>
