<svg width="25" height="25" viewBox="0 0 25 25" fill="none" xmlns="http://www.w3.org/2000/svg">
<path d="M24.0573 22.9021L16.974 15.7966C18.1296 14.2525 18.8349 12.3337 18.8349 10.235C18.8349 5.12323 14.708 0.970825 9.62057 0.970825C4.53318 0.970825 0.40625 5.10824 0.40625 10.235C0.40625 15.3618 4.53318 19.4992 9.62057 19.4992C11.7666 19.4992 13.7325 18.7497 15.2932 17.5205L22.3465 24.6111C22.5866 24.8509 22.8868 24.9708 23.2019 24.9708C23.5171 24.9708 23.8172 24.8509 24.0573 24.6111C24.5226 24.1463 24.5226 23.3818 24.0573 22.9021ZM2.20709 10.235C2.20709 6.1276 5.53866 2.78469 9.62057 2.78469C13.7025 2.78469 17.034 6.1276 17.034 10.235C17.034 14.3425 13.7025 17.6854 9.62057 17.6854C5.53866 17.6854 2.20709 14.3425 2.20709 10.235Z" fill="#FF363C"/>
</svg>
