<svg width="220" height="221" viewBox="0 0 220 221" fill="none" xmlns="http://www.w3.org/2000/svg">
<path d="M0 24.6932C0 11.4383 10.7452 0.693176 24 0.693176H196C209.255 0.693176 220 11.4383 220 24.6932V196.693C220 209.948 209.255 220.693 196 220.693H24C10.7452 220.693 0 209.948 0 196.693V24.6932Z" fill="#D6E0FF"/>
<path d="M165.264 26.6311H62.0178C53.4761 26.6311 46.5518 33.5363 46.5518 42.0543V205.27C46.5518 213.788 53.4761 220.693 62.0178 220.693H165.264C173.805 220.693 180.73 213.788 180.73 205.27V42.0543C180.73 33.5363 173.805 26.6311 165.264 26.6311Z" fill="#FFAEB1"/>
<path d="M86.1847 48.301H75.7457C72.6474 48.301 70.1357 50.8127 70.1357 53.911V76.23C70.1357 79.3283 72.6474 81.84 75.7457 81.84H86.1847C89.2831 81.84 91.7947 79.3283 91.7947 76.23V53.911C91.7947 50.8127 89.2831 48.301 86.1847 48.301Z" fill="#FF363C"/>
<circle cx="183.7" cy="165.693" r="9.9" fill="#FFE0E1"/>
<circle cx="123.2" cy="148.093" r="9.9" fill="#F6D8D9"/>
<circle cx="100.1" cy="148.093" r="9.9" fill="#F6D8D9"/>
<path d="M121.099 48.301H110.66C107.561 48.301 105.05 50.8127 105.05 53.911V76.23C105.05 79.3283 107.561 81.84 110.66 81.84H121.099C124.197 81.84 126.709 79.3283 126.709 76.23V53.911C126.709 50.8127 124.197 48.301 121.099 48.301Z" fill="#FF363C"/>
<circle cx="33.0006" cy="152.493" r="9.9" fill="#F6D8D9"/>
<path d="M86.1847 96.1291H75.7457C72.6474 96.1291 70.1357 98.6408 70.1357 101.739V124.058C70.1357 127.156 72.6474 129.668 75.7457 129.668H86.1847C89.2831 129.668 91.7947 127.156 91.7947 124.058V101.739C91.7947 98.6408 89.2831 96.1291 86.1847 96.1291Z" fill="#FF363C"/>
<path d="M121.099 96.1291H110.66C107.561 96.1291 105.05 98.6408 105.05 101.739V124.058C105.05 127.156 107.561 129.668 110.66 129.668H121.099C124.197 129.668 126.709 127.156 126.709 124.058V101.739C126.709 98.6408 124.197 96.1291 121.099 96.1291Z" fill="#FF363C"/>
<path d="M156.014 48.301H145.575C142.477 48.301 139.965 50.8127 139.965 53.911V76.23C139.965 79.3283 142.477 81.84 145.575 81.84H156.014C159.112 81.84 161.624 79.3283 161.624 76.23V53.911C161.624 50.8127 159.112 48.301 156.014 48.301Z" fill="#FF363C"/>
<path d="M23.0996 220.693C23.0996 192.346 41.9096 169.356 65.1086 169.356C88.3076 169.356 107.118 192.335 107.118 220.693H23.0996Z" fill="#2651DF"/>
<path d="M113.641 220.693C113.641 192.346 132.451 169.356 155.65 169.356C178.849 169.356 197.659 192.335 197.659 220.693H113.641Z" fill="#2651DF"/>
<path d="M154.044 188.573C173.782 188.573 189.783 172.573 189.783 152.834C189.783 133.096 173.782 117.095 154.044 117.095C134.306 117.095 118.305 133.096 118.305 152.834C118.305 172.573 134.306 188.573 154.044 188.573Z" fill="#FFE0E1"/>
<path d="M129.194 165.858C130.567 165.858 131.68 164.051 131.68 161.821C131.68 159.592 130.567 157.784 129.194 157.784C127.821 157.784 126.708 159.592 126.708 161.821C126.708 164.051 127.821 165.858 129.194 165.858Z" fill="#1E1E1E"/>
<path d="M140.481 169.895C141.854 169.895 142.967 168.088 142.967 165.858C142.967 163.629 141.854 161.821 140.481 161.821C139.108 161.821 137.995 163.629 137.995 165.858C137.995 168.088 139.108 169.895 140.481 169.895Z" fill="#1E1E1E"/>
<path d="M66.8689 182.05C86.607 182.05 102.608 166.049 102.608 146.311C102.608 126.573 86.607 110.572 66.8689 110.572C47.1308 110.572 31.1299 126.573 31.1299 146.311C31.1299 166.049 47.1308 182.05 66.8689 182.05Z" fill="#FFE0E1"/>
<path d="M74.8004 159.39C76.1734 159.39 77.2864 157.583 77.2864 155.353C77.2864 153.124 76.1734 151.316 74.8004 151.316C73.4275 151.316 72.3145 153.124 72.3145 155.353C72.3145 157.583 73.4275 159.39 74.8004 159.39Z" fill="#1E1E1E"/>
<path d="M63.5133 159.39C64.8863 159.39 65.9993 157.583 65.9993 155.353C65.9993 153.124 64.8863 151.316 63.5133 151.316C62.1404 151.316 61.0273 153.124 61.0273 155.353C61.0273 157.583 62.1404 159.39 63.5133 159.39Z" fill="#1E1E1E"/>
<mask id="mask0_833_1982" style="mask-type:luminance" maskUnits="userSpaceOnUse" x="31" y="107" width="72" height="72">
<path d="M66.8689 178.871C86.607 178.871 102.608 162.87 102.608 143.132C102.608 123.394 86.607 107.393 66.8689 107.393C47.1308 107.393 31.1299 123.394 31.1299 143.132C31.1299 162.87 47.1308 178.871 66.8689 178.871Z" fill="white"/>
</mask>
<g mask="url(#mask0_833_1982)">
<path d="M39.5993 78.2214C47.6733 78.6504 54.9663 81.7304 60.6973 86.5594C67.6053 77.3304 78.8473 71.5994 91.2333 72.2704C110.945 73.3264 126.07 90.1564 125.014 109.868C123.958 129.58 107.128 144.705 87.4163 143.649C79.3423 143.22 72.0493 140.14 66.3183 135.311C59.4103 144.54 48.1683 150.271 35.7823 149.6C16.0703 148.544 0.945316 131.714 2.00132 112.002C3.05732 92.2904 19.8873 77.1654 39.5993 78.2214Z" fill="#1233A1"/>
</g>
<mask id="mask1_833_1982" style="mask-type:luminance" maskUnits="userSpaceOnUse" x="118" y="113" width="73" height="74">
<path d="M154.605 186.032C174.653 186.032 190.905 169.78 190.905 149.732C190.905 129.684 174.653 113.432 154.605 113.432C134.557 113.432 118.305 129.684 118.305 149.732C118.305 169.78 134.557 186.032 154.605 186.032Z" fill="white"/>
</mask>
<g mask="url(#mask1_833_1982)">
<path d="M185.699 90.8744C177.61 89.4778 169.688 90.8744 162.918 94.3491C158.169 83.6456 148.326 75.4337 135.925 73.2774C116.171 69.8586 97.3788 83.087 93.96 102.851C90.5411 122.605 103.77 141.397 123.534 144.816C131.623 146.213 139.544 144.816 146.315 141.341C151.063 152.045 160.907 160.257 173.308 162.413C193.062 165.832 211.854 152.603 215.273 132.839C218.692 113.074 205.463 94.2932 185.699 90.8744Z" fill="#1233A1"/>
</g>
</svg>
