<svg width="220" height="221" viewBox="0 0 220 221" fill="none" xmlns="http://www.w3.org/2000/svg">
<path d="M220 110.612C220 49.9053 170.751 0.693176 110 0.693176C49.2487 0.693176 0 49.9053 0 110.612C0 171.318 49.2487 220.53 110 220.53C170.751 220.53 220 171.318 220 110.612Z" fill="#D6E0FF"/>
<path d="M36.502 170.176C40.4481 147.58 58.7559 148.073 58.7559 113.058L153.982 95.3314L162.78 136.201C162.262 152.614 152.089 197.47 122.412 203.659C88.789 210.672 50.8069 170.176 36.502 170.176Z" fill="#1233A1"/>
<ellipse cx="61.1659" cy="122.934" rx="12.8251" ry="12.8156" fill="url(#paint0_linear_833_1963)"/>
<ellipse cx="12.8245" cy="12.8162" rx="12.8245" ry="12.8162" transform="matrix(-0.965974 -0.25864 0.258998 -0.965878 168.812 141.51)" fill="url(#paint1_linear_833_1963)"/>
<path d="M46.0898 220.693C46.0898 179.203 74.0862 145.567 108.62 145.567C143.154 145.567 171.15 179.203 171.15 220.693H46.0898Z" fill="#2651DF"/>
<path d="M111.246 163.656C140.63 163.656 164.45 139.854 164.45 110.491C164.45 81.1291 140.63 57.3263 111.246 57.3263C81.8615 57.3263 58.041 81.1291 58.041 110.491C58.041 139.854 81.8615 163.656 111.246 163.656Z" fill="#FFE0E1"/>
<path d="M123.041 129.936C125.086 129.936 126.743 127.248 126.743 123.932C126.743 120.615 125.086 117.927 123.041 117.927C120.997 117.927 119.34 120.615 119.34 123.932C119.34 127.248 120.997 129.936 123.041 129.936Z" fill="#1E1E1E"/>
<path d="M106.237 129.936C108.281 129.936 109.938 127.248 109.938 123.932C109.938 120.615 108.281 117.927 106.237 117.927C104.192 117.927 102.535 120.615 102.535 123.932C102.535 127.248 104.192 129.936 106.237 129.936Z" fill="#1E1E1E"/>
<mask id="mask0_833_1963" style="mask-type:luminance" maskUnits="userSpaceOnUse" x="58" y="56" width="108" height="108">
<path d="M111.891 163.705C141.541 163.705 165.577 139.687 165.577 110.059C165.577 80.4318 141.541 56.4139 111.891 56.4139C82.2418 56.4139 58.2061 80.4318 58.2061 110.059C58.2061 139.687 82.2418 163.705 111.891 163.705Z" fill="white"/>
</mask>
<g mask="url(#mask0_833_1963)">
<path d="M81.7117 10.9982C93.6827 12.9951 104.053 18.8211 111.804 26.993C123.678 14.391 141.421 7.74109 159.795 10.814C189.043 15.6997 208.775 43.3561 203.886 72.5828C198.997 101.81 171.32 121.527 142.071 116.641C130.1 114.644 119.73 108.818 111.979 100.646C100.105 113.248 82.3617 119.898 63.988 116.825C34.7395 111.94 15.0077 84.2832 19.897 55.0565C24.796 25.8297 52.4729 6.10284 81.7117 10.9982Z" fill="#1233A1"/>
</g>
<defs>
<linearGradient id="paint0_linear_833_1963" x1="48.3408" y1="122.934" x2="133.677" y2="119.479" gradientUnits="userSpaceOnUse">
<stop stop-color="#FFE0E1"/>
<stop offset="1" stop-color="#998787"/>
</linearGradient>
<linearGradient id="paint1_linear_833_1963" x1="0" y1="12.8162" x2="85.3319" y2="9.36128" gradientUnits="userSpaceOnUse">
<stop stop-color="#FFE0E1"/>
<stop offset="1" stop-color="#998787"/>
</linearGradient>
</defs>
</svg>
